# xmcd
#
# Track frame offsets: 
#        150
#        11798
#        32684
#        45535
#        65847
#        84124
#        98760
#        113066
#        127518
#        136857
#        155022
#
# Disc length: 2294 seconds
#
# Revision: 0
# Processed by: cddbd v1.5.2PL0 Copyright (c) Steve Scherf et al.
# Submitted via: ExactAudioCopy v0.99pb4
#
DISCID=8008f40b
DTITLE=Hospital Ships - Lonely Twin
DYEAR=2011
DGENRE=Indie Rock
TTITLE0=Love or death
TTITLE1=Honey, Please
TTITLE2=Bird in Furs
TTITLE3=Galaxies
TTITLE4=Phantom Limb
TTITLE5=Carry On
TTITLE6=Anyone, Everyone
TTITLE7=Old Skin
TTITLE8=Reprise
TTITLE9=Little Dead Leaf
TTITLE10=New Life
EXTD=
EXTT0=
EXTT1=
EXTT2=
EXTT3=
EXTT4=
EXTT5=
EXTT6=
EXTT7=
EXTT8=
EXTT9=
EXTT10=
PLAYORDER=
